<mxfile host="app.diagrams.net" modified="2023-07-28T02:49:35.037Z" agent="Mozilla/5.0 (Windows NT 10.0; Win64; x64) AppleWebKit/537.36 (KHTML, like Gecko) Chrome/115.0.0.0 Safari/537.36 Edg/115.0.1901.183" version="21.6.5" etag="zj1kS30MfWqN3US80k05" type="github">
  <diagram name="Page-1" id="0Eno9q6MH2VXk7FZKAv6">
    <mxGraphModel>
      <root>
        <mxCell id="0" />
        <mxCell id="1" parent="0" />
      </root>
    </mxGraphModel>
  </diagram>
</mxfile>
